<?xml version="1.0" encoding="UTF-8" standalone="no"?>
<!DOCTYPE svg PUBLIC "-//W3C//DTD SVG 1.1//EN"
 "http://www.w3.org/Graphics/SVG/1.1/DTD/svg11.dtd">
<!-- Generated by graphviz version 2.38.0 (20140413.2041)
 -->
<!-- Title: %3 Pages: 1 -->
<svg width="294pt" height="204pt"
 viewBox="0.00 0.00 294.00 204.00" xmlns="http://www.w3.org/2000/svg" xmlns:xlink="http://www.w3.org/1999/xlink">
<g id="graph0" class="graph" transform="scale(1 1) rotate(0) translate(4 200)">
<title>%3</title>
<polygon fill="white" stroke="none" points="-4,4 -4,-200 290,-200 290,4 -4,4"/>
<g id="clust1" class="cluster"><title>cluster0</title>
</g>
<g id="clust2" class="cluster"><title>cluster1</title>
</g>
<!-- a -->
<g id="node1" class="node"><title>a</title>
<ellipse fill="none" stroke="black" cx="151" cy="-178" rx="27" ry="18"/>
<text text-anchor="middle" x="151" y="-173.8" font-family="Times,serif" font-size="14.00">a</text>
</g>
<!-- b0 -->
<g id="node2" class="node"><title>b0</title>
<ellipse fill="none" stroke="black" cx="43" cy="-106" rx="27" ry="18"/>
<text text-anchor="start" x="37" y="-102.8" font-family="Times,serif" font-size="14.00">b</text>
<text text-anchor="start" x="44" y="-102.8" font-family="Times,serif" baseline-shift="sub" font-size="10.00">0</text>
</g>
<!-- a&#45;&gt;b0 -->
<g id="edge1" class="edge"><title>a&#45;&gt;b0</title>
<path fill="none" stroke="black" d="M132.188,-164.807C114.998,-153.665 89.3816,-137.062 70.0067,-124.504"/>
<polygon fill="black" stroke="black" points="71.8918,-121.555 61.5966,-119.053 68.0845,-127.429 71.8918,-121.555"/>
</g>
<!-- b2 -->
<g id="node3" class="node"><title>b2</title>
<ellipse fill="none" stroke="black" cx="187" cy="-106" rx="27" ry="18"/>
<text text-anchor="start" x="181" y="-102.8" font-family="Times,serif" font-size="14.00">b</text>
<text text-anchor="start" x="188" y="-102.8" font-family="Times,serif" baseline-shift="sub" font-size="10.00">2</text>
</g>
<!-- a&#45;&gt;b2 -->
<g id="edge2" class="edge"><title>a&#45;&gt;b2</title>
<path fill="none" stroke="black" d="M159.35,-160.765C163.712,-152.283 169.147,-141.714 174.041,-132.197"/>
<polygon fill="black" stroke="black" points="177.235,-133.641 178.696,-123.147 171.01,-130.439 177.235,-133.641"/>
</g>
<!-- b1 -->
<g id="node4" class="node"><title>b1</title>
<ellipse fill="none" stroke="black" cx="115" cy="-106" rx="27" ry="18"/>
<text text-anchor="start" x="109" y="-102.8" font-family="Times,serif" font-size="14.00">b</text>
<text text-anchor="start" x="116" y="-102.8" font-family="Times,serif" baseline-shift="sub" font-size="10.00">1</text>
</g>
<!-- a&#45;&gt;b1 -->
<g id="edge3" class="edge"><title>a&#45;&gt;b1</title>
<path fill="none" stroke="black" d="M142.65,-160.765C138.288,-152.283 132.853,-141.714 127.959,-132.197"/>
<polygon fill="black" stroke="black" points="130.99,-130.439 123.304,-123.147 124.765,-133.641 130.99,-130.439"/>
</g>
<!-- c -->
<g id="node5" class="node"><title>c</title>
<ellipse fill="none" stroke="black" cx="259" cy="-106" rx="27" ry="18"/>
<text text-anchor="middle" x="259" y="-101.8" font-family="Times,serif" font-size="14.00">c</text>
</g>
<!-- a&#45;&gt;c -->
<g id="edge4" class="edge"><title>a&#45;&gt;c</title>
<path fill="none" stroke="black" d="M169.812,-164.807C187.002,-153.665 212.618,-137.062 231.993,-124.504"/>
<polygon fill="black" stroke="black" points="233.916,-127.429 240.403,-119.053 230.108,-121.555 233.916,-127.429"/>
</g>
<!-- d0 -->
<g id="node6" class="node"><title>d0</title>
<ellipse fill="none" stroke="black" cx="79" cy="-34" rx="27" ry="18"/>
<text text-anchor="start" x="73" y="-30.8" font-family="Times,serif" font-size="14.00">d</text>
<text text-anchor="start" x="80" y="-30.8" font-family="Times,serif" baseline-shift="sub" font-size="10.00">0</text>
</g>
<!-- b0&#45;&gt;d0 -->
<g id="edge5" class="edge"><title>b0&#45;&gt;d0</title>
<path fill="none" stroke="black" d="M51.3496,-88.7646C55.7115,-80.2831 61.1469,-69.7144 66.0413,-60.1974"/>
<polygon fill="black" stroke="black" points="69.2346,-61.6409 70.6957,-51.1473 63.0096,-58.4395 69.2346,-61.6409"/>
</g>
<!-- d2 -->
<g id="node7" class="node"><title>d2</title>
<ellipse fill="none" stroke="black" cx="223" cy="-34" rx="27" ry="18"/>
<text text-anchor="start" x="217" y="-30.8" font-family="Times,serif" font-size="14.00">d</text>
<text text-anchor="start" x="224" y="-30.8" font-family="Times,serif" baseline-shift="sub" font-size="10.00">2</text>
</g>
<!-- b2&#45;&gt;d2 -->
<g id="edge7" class="edge"><title>b2&#45;&gt;d2</title>
<path fill="none" stroke="black" d="M195.35,-88.7646C199.712,-80.2831 205.147,-69.7144 210.041,-60.1974"/>
<polygon fill="black" stroke="black" points="213.235,-61.6409 214.696,-51.1473 207.01,-58.4395 213.235,-61.6409"/>
</g>
<!-- d1 -->
<g id="node8" class="node"><title>d1</title>
<ellipse fill="none" stroke="black" cx="151" cy="-34" rx="27" ry="18"/>
<text text-anchor="start" x="145" y="-30.8" font-family="Times,serif" font-size="14.00">d</text>
<text text-anchor="start" x="152" y="-30.8" font-family="Times,serif" baseline-shift="sub" font-size="10.00">1</text>
</g>
<!-- b1&#45;&gt;d1 -->
<g id="edge9" class="edge"><title>b1&#45;&gt;d1</title>
<path fill="none" stroke="black" d="M123.35,-88.7646C127.712,-80.2831 133.147,-69.7144 138.041,-60.1974"/>
<polygon fill="black" stroke="black" points="141.235,-61.6409 142.696,-51.1473 135.01,-58.4395 141.235,-61.6409"/>
</g>
<!-- c&#45;&gt;d0 -->
<g id="edge6" class="edge"><title>c&#45;&gt;d0</title>
<path fill="none" stroke="black" d="M236.203,-96.1345C204.641,-83.8604 147.461,-61.6238 111.452,-47.6202"/>
<polygon fill="black" stroke="black" points="112.484,-44.2664 101.896,-43.9038 109.947,-50.7904 112.484,-44.2664"/>
</g>
<!-- c&#45;&gt;d2 -->
<g id="edge8" class="edge"><title>c&#45;&gt;d2</title>
<path fill="none" stroke="black" d="M250.65,-88.7646C246.288,-80.2831 240.853,-69.7144 235.959,-60.1974"/>
<polygon fill="black" stroke="black" points="238.99,-58.4395 231.304,-51.1473 232.765,-61.6409 238.99,-58.4395"/>
</g>
<!-- c&#45;&gt;d1 -->
<g id="edge10" class="edge"><title>c&#45;&gt;d1</title>
<path fill="none" stroke="black" d="M240.188,-92.8069C222.998,-81.6653 197.382,-65.0622 178.007,-52.5043"/>
<polygon fill="black" stroke="black" points="179.892,-49.5553 169.597,-47.0533 176.084,-55.4294 179.892,-49.5553"/>
</g>
</g>
</svg>
